<?xml version="1.0" encoding="UTF-8"?>
<svg width="200" height="150" viewBox="0 0 200 150" xmlns="http://www.w3.org/2000/svg">
  <!-- Sky Background -->
  <rect x="0" y="0" width="200" height="150" fill="#E6F3FF"/>
  
  <!-- Mountain Background -->
  <polygon points="0,150 60,90 80,100 120,70 150,90 200,60 200,150" fill="#8DAA9D"/>
  
  <!-- Ground -->
  <rect x="0" y="120" width="200" height="30" fill="#8D7B68"/>
  
  <!-- Main Church Building -->
  <rect x="70" y="70" width="60" height="50" fill="#F5DEB3" stroke="#5D4037" stroke-width="2"/>
  
  <!-- Church Roof -->
  <polygon points="70,70 100,50 130,70" fill="#8D6E63" stroke="#5D4037" stroke-width="2"/>
  
  <!-- Bell Tower -->
  <rect x="110" y="40" width="20" height="30" fill="#F5DEB3" stroke="#5D4037" stroke-width="2"/>
  <polygon points="110,40 120,30 130,40" fill="#8D6E63" stroke="#5D4037" stroke-width="2"/>
  
  <!-- Bell Tower Cross -->
  <rect x="118" y="20" width="4" height="12" fill="#5D4037"/>
  <rect x="114" y="23" width="12" height="4" fill="#5D4037"/>
  
  <!-- Main Church Cross -->
  <rect x="98" y="35" width="4" height="15" fill="#5D4037"/>
  <rect x="94" y="40" width="12" height="4" fill="#5D4037"/>
  
  <!-- Church Door -->
  <rect x="90" y="100" width="20" height="20" fill="#5D4037"/>
  <path d="M90,100 Q100,90 110,100" fill="none" stroke="#5D4037" stroke-width="1"/>
  
  <!-- Church Windows -->
  <rect x="77" y="80" width="10" height="15" fill="#B3E5FC" stroke="#5D4037" stroke-width="1"/>
  <rect x="113" y="80" width="10" height="15" fill="#B3E5FC" stroke="#5D4037" stroke-width="1"/>
  
  <!-- Additional Buildings (Monastic Cells) -->
  <rect x="45" y="90" width="20" height="30" fill="#F5DEB3" stroke="#5D4037" stroke-width="1"/>
  <rect x="135" y="90" width="20" height="30" fill="#F5DEB3" stroke="#5D4037" stroke-width="1"/>
  <polygon points="45,90 55,80 65,90" fill="#8D6E63" stroke="#5D4037" stroke-width="1"/>
  <polygon points="135,90 145,80 155,90" fill="#8D6E63" stroke="#5D4037" stroke-width="1"/>
  
  <!-- Path to Church -->
  <path d="M100,120 L100,140" fill="none" stroke="#A87D5F" stroke-width="3"/>
  <path d="M100,140 C80,140 55,140 40,140" fill="none" stroke="#A87D5F" stroke-width="3"/>
  <path d="M100,140 C120,140 145,140 160,140" fill="none" stroke="#A87D5F" stroke-width="3"/>
  
  <!-- Trees -->
  <circle cx="30" cy="105" r="10" fill="#2E7D32"/>
  <circle cx="170" cy="105" r="10" fill="#2E7D32"/>
  <rect x="28" y="110" width="4" height="10" fill="#795548"/>
  <rect x="168" y="110" width="4" height="10" fill="#795548"/>
</svg>