<?xml version="1.0" encoding="UTF-8"?>
<svg width="400" height="300" viewBox="0 0 400 300" xmlns="http://www.w3.org/2000/svg">
  <!-- Background Sky -->
  <defs>
    <linearGradient id="skyGradient" x1="0%" y1="0%" x2="0%" y2="100%">
      <stop offset="0%" style="stop-color:#81D4FA;stop-opacity:1" />
      <stop offset="100%" style="stop-color:#E1F5FE;stop-opacity:1" />
    </linearGradient>
  </defs>
  <rect x="0" y="0" width="400" height="300" fill="url(#skyGradient)"/>
  
  <!-- Sea at Bottom -->
  <rect x="0" y="200" width="400" height="100" fill="#0277BD" opacity="0.6"/>
  <path d="M0,200 Q40,195 80,200 Q120,205 160,200 Q200,195 240,200 Q280,205 320,200 Q360,195 400,200" fill="none" stroke="#B3E5FC" stroke-width="2"/>
  <path d="M0,210 Q40,205 80,210 Q120,215 160,210 Q200,205 240,210 Q280,215 320,210 Q360,205 400,210" fill="none" stroke="#B3E5FC" stroke-width="1" opacity="0.5"/>
  
  <!-- Mount Athos Main Mountain -->
  <path d="M50,300 L200,50 L350,300" fill="#78909C"/>
  <path d="M80,300 L200,80 L320,300" fill="#607D8B"/>
  
  <!-- Mountain Details -->
  <path d="M150,150 L200,100 L250,150" fill="#546E7A" opacity="0.7"/>
  <path d="M120,200 L200,120 L280,200" fill="#455A64" opacity="0.7"/>
  
  <!-- Monastery Buildings on Slope -->
  <g transform="translate(160, 180)">
    <!-- Main Building -->
    <rect x="-20" y="-25" width="40" height="30" fill="#FFFDE7" stroke="#5D4037" stroke-width="1"/>
    <polygon points="-20,-25 0,-40 20,-25" fill="#8D6E63" stroke="#5D4037" stroke-width="1"/>
    
    <!-- Windows and Door -->
    <rect x="-5" y="-10" width="10" height="15" fill="#5D4037"/>
    <rect x="-15" y="-20" width="8" height="10" fill="#B3E5FC" stroke="#5D4037" stroke-width="0.5"/>
    <rect x="7" y="-20" width="8" height="10" fill="#B3E5FC" stroke="#5D4037" stroke-width="0.5"/>
    
    <!-- Cross -->
    <rect x="-1" y="-45" width="2" height="6" fill="#5D4037"/>
    <rect x="-3" y="-43" width="6" height="2" fill="#5D4037"/>
  </g>
  
  <g transform="translate(240, 220)">
    <!-- Secondary Building -->
    <rect x="-15" y="-20" width="30" height="25" fill="#FFFDE7" stroke="#5D4037" stroke-width="1"/>
    <polygon points="-15,-20 0,-30 15,-20" fill="#8D6E63" stroke="#5D4037" stroke-width="1"/>
    
    <!-- Windows and Door -->
    <rect x="-4" y="-8" width="8" height="13" fill="#5D4037"/>
    <rect x="-10" y="-16" width="6" height="8" fill="#B3E5FC" stroke="#5D4037" stroke-width="0.5"/>
    <rect x="4" y="-16" width="6" height="8" fill="#B3E5FC" stroke="#5D4037" stroke-width="0.5"/>
    
    <!-- Cross -->
    <rect x="-1" y="-35" width="2" height="5" fill="#5D4037"/>
    <rect x="-3" y="-33" width="6" height="2" fill="#5D4037"/>
  </g>
  
  <!-- Small Cell/Hermitage on Cliff -->
  <g transform="translate(100, 150)">
    <rect x="-10" y="-15" width="20" height="20" fill="#FFFDE7" stroke="#5D4037" stroke-width="1"/>
    <polygon points="-10,-15 0,-25 10,-15" fill="#8D6E63" stroke="#5D4037" stroke-width="1"/>
    
    <!-- Door -->
    <rect x="-3" y="-5" width="6" height="10" fill="#5D4037"/>
    
    <!-- Window -->
    <rect x="0" y="-12" width="4" height="5" fill="#B3E5FC" stroke="#5D4037" stroke-width="0.5"/>
    
    <!-- Cross -->
    <rect x="-0.5" y="-28" width="1" height="3" fill="#5D4037"/>
    <rect x="-1.5" y="-27" width="3" height="1" fill="#5D4037"/>
  </g>
  
  <!-- Boat in Water -->
  <path d="M300,250 Q305,245 310,250 L325,250 Q330,245 335,250" fill="#795548" stroke="#5D4037" stroke-width="1"/>
  <path d="M317,240 L317,250" fill="none" stroke="#5D4037" stroke-width="1"/>
  <path d="M317,240 L320,235 L323,240" fill="#FFECB3" stroke="#5D4037" stroke-width="0.5"/>
  
  <!-- Sun -->
  <circle cx="80" cy="60" r="15" fill="#FFEB3B" opacity="0.7"/>
  <circle cx="80" cy="60" r="20" fill="none" stroke="#FFEB3B" stroke-width="1.5" opacity="0.4"/>
  
  <!-- Clouds -->
  <g transform="translate(280, 80)">
    <ellipse cx="0" cy="0" rx="20" ry="10" fill="#FFFFFF" opacity="0.8"/>
    <ellipse cx="-15" cy="0" rx="15" ry="8" fill="#FFFFFF" opacity="0.8"/>
    <ellipse cx="15" cy="0" rx="15" ry="8" fill="#FFFFFF" opacity="0.8"/>
  </g>
  
  <g transform="translate(150, 40)">
    <ellipse cx="0" cy="0" rx="25" ry="12" fill="#FFFFFF" opacity="0.7"/>
    <ellipse cx="-18" cy="0" rx="18" ry="9" fill="#FFFFFF" opacity="0.7"/>
    <ellipse cx="18" cy="0" rx="18" ry="9" fill="#FFFFFF" opacity="0.7"/>
  </g>
</svg>