<?xml version="1.0" encoding="UTF-8"?>
<svg width="800" height="600" xmlns="http://www.w3.org/2000/svg">
  <rect width="800" height="600" fill="#e9f0e6"/>
  
  <!-- Mountain background -->
  <path d="M0,250 Q150,100 300,250 Q450,150 600,220 Q750,100 800,200 L800,600 L0,600 Z" fill="#919e89"/>
  
  <!-- Forest -->
  <path d="M0,300 Q200,270 400,320 Q600,280 800,310 L800,600 L0,600 Z" fill="#657a55"/>
  
  <!-- Sihastria Monastery wooden buildings -->
  <rect x="300" y="320" width="200" height="80" rx="5" ry="5" fill="#8c6e4a"/>
  
  <!-- Main church -->
  <rect x="350" y="250" width="100" height="70" fill="#8c6e4a"/>
  <path d="M350,250 Q400,200 450,250" fill="#78503a"/>
  
  <!-- Bell tower -->
  <rect x="465" y="270" width="30" height="50" fill="#8c6e4a"/>
  <path d="M465,270 Q480,240 495,270" fill="#78503a"/>
  <rect x="475" y="240" width="10" height="20" fill="#8c6e4a"/>
  
  <!-- Cross -->
  <path d="M480,225 L480,240 M475,230 L485,230" stroke="#8c6e4a" stroke-width="2"/>
  
  <!-- Trees -->
  <path d="M200,350 C180,250 220,250 200,350 Z" fill="#435643"/>
  <path d="M240,370 C220,270 260,270 240,370 Z" fill="#435643"/>
  <path d="M160,360 C140,260 180,260 160,360 Z" fill="#435643"/>
  
  <path d="M600,350 C580,250 620,250 600,350 Z" fill="#435643"/>
  <path d="M640,370 C620,270 660,270 640,370 Z" fill="#435643"/>
  <path d="M560,360 C540,260 580,260 560,360 Z" fill="#435643"/>
  
  <!-- Small pathway -->
  <path d="M380,400 C400,420 420,400 450,420" stroke="#c9baa2" stroke-width="10" fill="none"/>
  
  <!-- Pilgrimage label -->
  <text x="400" y="500" font-family="serif" font-size="28" text-anchor="middle" fill="#3d4a2d">Sihăstria Monastery Pilgrimage</text>
</svg>