<?xml version="1.0" encoding="UTF-8"?>
<svg width="100" height="100" viewBox="0 0 100 100" xmlns="http://www.w3.org/2000/svg">
  <!-- Background Circle -->
  <circle cx="50" cy="50" r="45" fill="#F3E5F5" opacity="0.7"/>
  
  <!-- Calendar Base -->
  <rect x="20" y="20" width="60" height="60" rx="4" fill="#FFFFFF" stroke="#616161" stroke-width="1.5"/>
  
  <!-- Calendar Header -->
  <rect x="20" y="20" width="60" height="12" rx="4" fill="#3B5D7A" stroke="#616161" stroke-width="1.5"/>
  <text x="50" y="29" font-family="Arial" font-size="8" font-weight="bold" text-anchor="middle" fill="#FFFFFF">AUGUST 2025</text>
  
  <!-- Calendar Day Headers -->
  <rect x="20" y="32" width="60" height="8" fill="#ECEFF1"/>
  <text x="25" y="37.5" font-family="Arial" font-size="5" text-anchor="middle" fill="#616161">L</text>
  <text x="35" y="37.5" font-family="Arial" font-size="5" text-anchor="middle" fill="#616161">M</text>
  <text x="45" y="37.5" font-family="Arial" font-size="5" text-anchor="middle" fill="#616161">M</text>
  <text x="55" y="37.5" font-family="Arial" font-size="5" text-anchor="middle" fill="#616161">J</text>
  <text x="65" y="37.5" font-family="Arial" font-size="5" text-anchor="middle" fill="#616161">V</text>
  <text x="75" y="37.5" font-family="Arial" font-size="5" text-anchor="middle" fill="#616161">S</text>
  
  <!-- Calendar Grid Lines -->
  <line x1="30" y1="40" x2="30" y2="80" stroke="#EEEEEE" stroke-width="1"/>
  <line x1="40" y1="40" x2="40" y2="80" stroke="#EEEEEE" stroke-width="1"/>
  <line x1="50" y1="40" x2="50" y2="80" stroke="#EEEEEE" stroke-width="1"/>
  <line x1="60" y1="40" x2="60" y2="80" stroke="#EEEEEE" stroke-width="1"/>
  <line x1="70" y1="40" x2="70" y2="80" stroke="#EEEEEE" stroke-width="1"/>
  
  <line x1="20" y1="50" x2="80" y2="50" stroke="#EEEEEE" stroke-width="1"/>
  <line x1="20" y1="60" x2="80" y2="60" stroke="#EEEEEE" stroke-width="1"/>
  <line x1="20" y1="70" x2="80" y2="70" stroke="#EEEEEE" stroke-width="1"/>
  
  <!-- Calendar Days - Regular Days -->
  <text x="25" y="45" font-family="Arial" font-size="6" text-anchor="middle" fill="#616161">1</text>
  <text x="35" y="45" font-family="Arial" font-size="6" text-anchor="middle" fill="#616161">2</text>
  <text x="45" y="45" font-family="Arial" font-size="6" text-anchor="middle" fill="#616161">3</text>
  <text x="55" y="45" font-family="Arial" font-size="6" text-anchor="middle" fill="#616161">4</text>
  <text x="65" y="45" font-family="Arial" font-size="6" text-anchor="middle" fill="#616161">5</text>
  <text x="75" y="45" font-family="Arial" font-size="6" text-anchor="middle" fill="#616161">6</text>
  
  <text x="25" y="55" font-family="Arial" font-size="6" text-anchor="middle" fill="#616161">7</text>
  <text x="35" y="55" font-family="Arial" font-size="6" text-anchor="middle" fill="#616161">8</text>
  <text x="45" y="55" font-family="Arial" font-size="6" text-anchor="middle" fill="#616161">9</text>
  <text x="55" y="55" font-family="Arial" font-size="6" text-anchor="middle" fill="#616161">10</text>
  <text x="65" y="55" font-family="Arial" font-size="6" text-anchor="middle" fill="#616161">11</text>
  <text x="75" y="55" font-family="Arial" font-size="6" text-anchor="middle" fill="#616161">12</text>
  
  <text x="25" y="65" font-family="Arial" font-size="6" text-anchor="middle" fill="#616161">13</text>
  <text x="35" y="65" font-family="Arial" font-size="6" text-anchor="middle" fill="#616161">14</text>
  
  <text x="55" y="65" font-family="Arial" font-size="6" text-anchor="middle" fill="#616161">16</text>
  <text x="65" y="65" font-family="Arial" font-size="6" text-anchor="middle" fill="#616161">17</text>
  <text x="75" y="65" font-family="Arial" font-size="6" text-anchor="middle" fill="#616161">18</text>
  
  <text x="25" y="75" font-family="Arial" font-size="6" text-anchor="middle" fill="#616161">19</text>
  <text x="35" y="75" font-family="Arial" font-size="6" text-anchor="middle" fill="#616161">20</text>
  <text x="45" y="75" font-family="Arial" font-size="6" text-anchor="middle" fill="#616161">21</text>
  <text x="55" y="75" font-family="Arial" font-size="6" text-anchor="middle" fill="#616161">22</text>
  <text x="65" y="75" font-family="Arial" font-size="6" text-anchor="middle" fill="#616161">23</text>
  <text x="75" y="75" font-family="Arial" font-size="6" text-anchor="middle" fill="#616161">24</text>
  
  <!-- Special Feast Day -->
  <circle cx="45" cy="65" r="8" fill="#FFF9C4" stroke="#FBC02D" stroke-width="1"/>
  <text x="45" y="67" font-family="Arial" font-size="7" font-weight="bold" text-anchor="middle" fill="#5D4037">15</text>
  
  <!-- Fasting Days -->
  <rect x="20" y="40" width="10" height="10" rx="0" fill="#FBE9E7"/>
  <rect x="60" y="40" width="10" height="10" rx="0" fill="#FBE9E7"/>
  <rect x="70" y="40" width="10" height="10" rx="0" fill="#FBE9E7"/>
  <rect x="20" y="60" width="10" height="10" rx="0" fill="#FBE9E7"/>
  <rect x="60" y="60" width="10" height="10" rx="0" fill="#FBE9E7"/>
  <rect x="70" y="70" width="10" height="10" rx="0" fill="#FBE9E7"/>
  
  <!-- Church Bell Icon -->
  <g transform="translate(85, 15)">
    <path d="M0,0 C-3,0 -5,3 -5,8 C-5,13 -3,18 0,18 C3,18 5,13 5,8 C5,3 3,0 0,0 Z" fill="#CFD8DC" stroke="#607D8B" stroke-width="1"/>
    <ellipse cx="0" cy="0" rx="4" ry="1" fill="#B0BEC5" stroke="#607D8B" stroke-width="0.5"/>
    <line x1="0" y1="18" x2="0" y2="22" stroke="#607D8B" stroke-width="1"/>
    <circle cx="0" cy="23" r="1" fill="#607D8B"/>
  </g>
  
  <!-- Saint Icon -->
  <g transform="translate(15, 15)">
    <circle cx="0" cy="0" r="8" fill="#FFECB3" stroke="#FFA000" stroke-width="1"/>
    <ellipse cx="0" cy="0" rx="3" ry="0.8" fill="#FFE082"/>
    <path d="M0,-2 C-1.5,-1 -1.5,3 0,4 C1.5,3 1.5,-1 0,-2 Z" fill="#FFC107" stroke="#FFA000" stroke-width="0.5"/>
  </g>
</svg>