<?xml version="1.0" encoding="UTF-8"?>
<svg width="400" height="300" viewBox="0 0 400 300" xmlns="http://www.w3.org/2000/svg">
  <!-- Background Sky -->
  <defs>
    <linearGradient id="skyGradient" x1="0%" y1="0%" x2="0%" y2="100%">
      <stop offset="0%" style="stop-color:#B3E5FC;stop-opacity:1" />
      <stop offset="100%" style="stop-color:#E1F5FE;stop-opacity:1" />
    </linearGradient>
  </defs>
  <rect x="0" y="0" width="400" height="300" fill="url(#skyGradient)"/>
  
  <!-- Mountains in Background -->
  <polygon points="0,150 50,100 100,120 150,90 200,110 250,80 300,100 350,90 400,110 400,300 0,300" fill="#78909C" opacity="0.6"/>
  <polygon points="0,180 50,130 100,150 150,125 200,140 250,120 300,135 350,125 400,145 400,300 0,300" fill="#546E7A" opacity="0.7"/>
  
  <!-- Green Forest -->
  <path d="M0,210 Q200,180 400,210 L400,300 L0,300 Z" fill="#33691E" opacity="0.7"/>
  <path d="M0,240 Q100,220 200,240 Q300,260 400,240 L400,300 L0,300 Z" fill="#2E7D32" opacity="0.8"/>
  
  <!-- Putna Monastery - Simplified Version -->
  <g transform="translate(200, 220)">
    <!-- Main Church Building -->
    <rect x="-55" y="-60" width="110" height="65" fill="#F5F5DC" stroke="#5D4037" stroke-width="2"/>
    
    <!-- Main Dome -->
    <ellipse cx="0" cy="-65" rx="25" ry="10" fill="#F5F5DC" stroke="#5D4037" stroke-width="2"/>
    <path d="M-20,-65 Q0,-85 20,-65" fill="#8D6E63" stroke="#5D4037" stroke-width="2"/>
    
    <!-- Main Cross -->
    <rect x="-2" y="-95" width="4" height="15" fill="#5D4037"/>
    <rect x="-8" y="-88" width="16" height="4" fill="#5D4037"/>
    
    <!-- Smaller Side Domes -->
    <g transform="translate(-35, -60)">
      <ellipse cx="0" cy="0" rx="12" ry="5" fill="#F5F5DC" stroke="#5D4037" stroke-width="1"/>
      <path d="M-8,0 Q0,-10 8,0" fill="#8D6E63" stroke="#5D4037" stroke-width="1"/>
      <!-- Cross -->
      <rect x="-1" y="-15" width="2" height="8" fill="#5D4037"/>
      <rect x="-4" y="-12" width="8" height="2" fill="#5D4037"/>
    </g>
    
    <g transform="translate(35, -60)">
      <ellipse cx="0" cy="0" rx="12" ry="5" fill="#F5F5DC" stroke="#5D4037" stroke-width="1"/>
      <path d="M-8,0 Q0,-10 8,0" fill="#8D6E63" stroke="#5D4037" stroke-width="1"/>
      <!-- Cross -->
      <rect x="-1" y="-15" width="2" height="8" fill="#5D4037"/>
      <rect x="-4" y="-12" width="8" height="2" fill="#5D4037"/>
    </g>
    
    <!-- Front Door -->
    <rect x="-15" y="-15" width="30" height="20" fill="#8B4513"/>
    <path d="M-15,-15 Q0,-25 15,-15" fill="none" stroke="#5D4037" stroke-width="1"/>
    
    <!-- Windows -->
    <rect x="-40" y="-40" width="15" height="20" fill="#B3E5FC" stroke="#5D4037" stroke-width="1"/>
    <rect x="25" y="-40" width="15" height="20" fill="#B3E5FC" stroke="#5D4037" stroke-width="1"/>
    
    <!-- Surrounding Wall (simplified) -->
    <rect x="-75" y="-20" width="20" height="25" fill="#E0E0E0" stroke="#5D4037" stroke-width="1"/>
    <rect x="55" y="-20" width="20" height="25" fill="#E0E0E0" stroke="#5D4037" stroke-width="1"/>
    <path d="M-75,5 L-55,5 M55,5 L75,5" fill="none" stroke="#5D4037" stroke-width="2"/>
  </g>
  
  <!-- Grounds and Path -->
  <path d="M200,225 L200,270 M200,270 Q150,280 100,270 M200,270 Q250,280 300,270" fill="none" stroke="#A87D5F" stroke-width="3"/>
  
  <!-- Trees -->
  <g transform="translate(130, 230)">
    <ellipse cx="0" cy="-15" rx="12" ry="18" fill="#33691E"/>
    <rect x="-2" y="3" width="4" height="8" fill="#795548"/>
  </g>
  
  <g transform="translate(270, 225)">
    <ellipse cx="0" cy="-15" rx="12" ry="18" fill="#33691E"/>
    <rect x="-2" y="3" width="4" height="8" fill="#795548"/>
  </g>
  
  <g transform="translate(80, 260)">
    <ellipse cx="0" cy="-10" rx="8" ry="12" fill="#33691E"/>
    <rect x="-1.5" y="2" width="3" height="5" fill="#795548"/>
  </g>
  
  <g transform="translate(320, 255)">
    <ellipse cx="0" cy="-10" rx="8" ry="12" fill="#33691E"/>
    <rect x="-1.5" y="2" width="3" height="5" fill="#795548"/>
  </g>
  
  <!-- Sun -->
  <circle cx="320" cy="60" r="20" fill="#FFEB3B" opacity="0.7"/>
  <circle cx="320" cy="60" r="25" fill="none" stroke="#FFEB3B" stroke-width="2" opacity="0.5"/>
</svg>